<svg xmlns="http://www.w3.org/2000/svg" viewBox="530 780 760 1020" width="24" height="24">
  <!-- Shield outline -->
  <path d="M913.719 807.358C915.642 808.767 917.884 810.488 920.419 812.514C926.194 817.128 933.587 823.397 938.449 826.924L938.48 826.947L938.512 826.97C951.821 836.52 965.515 845.485 979.592 853.863L979.679 853.915L979.767 853.966C989.17 859.391 998.68 864.618 1008.3 869.649C1017.92 874.683 1027.64 879.513 1037.45 884.144C1047.27 888.773 1057.18 893.199 1067.18 897.419V897.42C1077.18 901.642 1087.26 905.656 1097.43 909.462C1106.32 912.792 1115.28 915.96 1124.28 918.966L1128.15 920.244C1138.46 923.627 1148.84 926.796 1159.29 929.75C1169.73 932.705 1180.23 935.44 1190.79 937.961C1201.35 940.482 1211.95 942.785 1222.61 944.868V944.867C1234.86 947.299 1247.56 949.105 1259.64 950.879C1260.04 972.031 1259.61 993.303 1259.55 1015.13V1015.14L1259.36 1145.47V1145.51L1259.47 1239.74C1259.5 1270.57 1259.83 1300.06 1255.79 1329.06V1329.06C1249.64 1373.17 1237.05 1415.31 1219.54 1456.63C1173.17 1566.04 1083.25 1662.8 983.71 1728.17C961.695 1742.63 939.032 1756.5 915.825 1766.59C851.253 1736.15 791.799 1699.58 740.531 1650.79C649.983 1564.63 584.638 1454.19 570.283 1330.13C565.169 1285.93 566.631 1241.89 566.501 1195.66C566.273 1114.54 567.896 1032.27 566.299 950.456C590.88 947.506 615.804 941.313 637.953 935.803C663.573 929.429 689.927 922.648 715.577 913.885C784.346 890.389 856.138 854.012 913.719 807.358Z" fill="none" stroke="currentColor" stroke-width="30"/>
  <!-- Vertical stem -->
  <path d="M912.996 930V1641.49" stroke="currentColor" stroke-width="40.4256" stroke-linecap="round"/>
  <!-- Left leaf -->
  <path d="M913.005 1091.7C686.621 1091.7 654.281 1253.4 686.621 1318.09C718.962 1382.77 815.983 1382.77 913.005 1285.75" fill="none" stroke="currentColor" stroke-width="40.4256" stroke-linecap="round" stroke-linejoin="round"/>
  <!-- Right leaf -->
  <path d="M912.996 1091.7C1139.38 1091.7 1171.72 1253.4 1139.38 1318.09C1107.04 1382.77 1010.02 1382.77 912.996 1285.75" fill="none" stroke="currentColor" stroke-width="40.4256" stroke-linecap="round" stroke-linejoin="round"/>
</svg>
